HIERARCHY
ROOT Hips
{
 OFFSET 0.000000 0.000000 0.000000
 CHANNELS 6 Xposition Yposition Zposition Yrotation Xrotation Zrotation
 JOINT Chest
 {
  OFFSET 0.000000 12.953391 -0.028419
  CHANNELS 3 Yrotation Xrotation Zrotation
  JOINT Chest2
  {
   OFFSET 0.000000 10.280254 0.051622
   CHANNELS 3 Yrotation Xrotation Zrotation
   JOINT Chest3
   {
    OFFSET 0.000000 9.287180 0.000000
    CHANNELS 3 Yrotation Xrotation Zrotation
    JOINT Chest4
    {
     OFFSET 0.000000 9.287180 0.000000
     CHANNELS 3 Yrotation Xrotation Zrotation
     JOINT Neck
     {
      OFFSET 0.000000 13.296264 0.000000
      CHANNELS 3 Yrotation Xrotation Zrotation
      JOINT Head
      {
       OFFSET 0.000000 8.959264 0.099003
       CHANNELS 3 Yrotation Xrotation Zrotation
       End Site
       {
        OFFSET 0.000000 17.121337 0.039303
       }
      }
     }
     JOINT RightCollar
     {
      OFFSET -3.193511 7.451388 0.000000
      CHANNELS 3 Yrotation Xrotation Zrotation
      JOINT RightShoulder
      {
       OFFSET -15.792092 0.000000 0.000000
       CHANNELS 3 Yrotation Xrotation Zrotation
       JOINT RightElbow
       {
        OFFSET -31.151839 0.000000 0.000000
        CHANNELS 3 Yrotation Xrotation Zrotation
        JOINT RightWrist
        {
         OFFSET -25.536298 0.000000 0.002321
         CHANNELS 3 Yrotation Xrotation Zrotation
         End Site
         {
          OFFSET -19.133213 0.000000 0.000000
         }
        }
       }
      }
     }
     JOINT LeftCollar
     {
      OFFSET 3.193511 7.451388 0.000000
      CHANNELS 3 Yrotation Xrotation Zrotation
      JOINT LeftShoulder
      {
       OFFSET 15.792092 0.000000 0.000000
       CHANNELS 3 Yrotation Xrotation Zrotation
       JOINT LeftElbow
       {
        OFFSET 31.151839 0.000000 0.000000
        CHANNELS 3 Yrotation Xrotation Zrotation
        JOINT LeftWrist
        {
         OFFSET 25.536298 0.000000 0.002321
         CHANNELS 3 Yrotation Xrotation Zrotation
         End Site
         {
          OFFSET 19.133213 0.000000 0.000000
         }
        }
       }
      }
     }
    }
   }
  }
 }
 JOINT RightHip
 {
  OFFSET -10.745749 0.139252 0.014209
  CHANNELS 3 Yrotation Xrotation Zrotation
  JOINT RightKnee
  {
   OFFSET 0.000000 -43.743899 -0.006071
   CHANNELS 3 Yrotation Xrotation Zrotation
   JOINT RightAnkle
   {
    OFFSET 0.000000 -43.214199 0.089931
    CHANNELS 3 Yrotation Xrotation Zrotation
    JOINT RightToe
    {
     OFFSET 0.000000 -9.699830 19.151588
     CHANNELS 3 Yrotation Xrotation Zrotation
     End Site
     {
      OFFSET 0.000000 -1.292898 4.893873
     }
    }
   }
  }
 }
 JOINT LeftHip
 {
  OFFSET 10.745749 0.139252 0.014209
  CHANNELS 3 Yrotation Xrotation Zrotation
  JOINT LeftKnee
  {
   OFFSET 0.000000 -43.743899 -0.006071
   CHANNELS 3 Yrotation Xrotation Zrotation
   JOINT LeftAnkle
   {
    OFFSET 0.000000 -43.214199 0.089931
    CHANNELS 3 Yrotation Xrotation Zrotation
    JOINT LeftToe
    {
     OFFSET 0.000000 -9.699830 19.151588
     CHANNELS 3 Yrotation Xrotation Zrotation
     End Site
     {
      OFFSET 0.000000 -1.292898 4.893873
     }
    }
   }
  }
 }
}
MOTION
Frames: 7
Frame Time: 0.016667
-5.439110 87.425823 37.847518 -64.243725 3.833231 8.604368 -1.950621 6.990409 -0.968697 -0.850662 3.110885 -0.400269 -0.850662 3.110885 -0.400269 -0.635800 2.333727 -0.295795 -4.471699 17.612839 7.715205 -10.791689 -2.466335 15.699451 5.521138 4.714005 7.916426 -7.478989 -3.900247 69.566544 92.174183 11.225026 25.458572 13.098255 14.331412 -7.745299 -1.482089 -2.047214 -7.329426 -5.026391 6.179612 -66.335427 -107.922058 6.740965 -13.487047 1.754779 7.581014 49.333560 5.479621 -37.820574 -3.489654 1.785910 81.787298 -0.604036 0.365885 -12.743477 -10.418636 -0.636807 -25.563761 4.133546 13.082171 -15.824839 7.900661 -6.470286 42.896372 -0.983411 -0.823496 -26.323221 -12.454783 0.000000 0.000000 0.000000
-5.805754 87.490949 38.563592 -67.199711 4.608084 8.278639 -1.951243 6.911706 -0.795887 -0.853827 3.074940 -0.323905 -0.853884 3.074771 -0.323864 -0.638661 2.306419 -0.238508 -4.486595 17.535054 7.814340 -10.861946 -2.592232 15.895890 5.172103 4.757040 8.211859 -8.133211 -3.312987 70.171856 91.918964 10.124079 25.402721 13.209124 13.861432 -8.735339 -1.518978 -1.985392 -7.172608 -5.958725 4.792238 -67.212769 -109.995787 7.074140 -12.566244 1.434513 7.461842 49.760692 5.320287 -39.374388 -3.298049 3.595658 81.527409 2.332534 -0.058573 -13.190593 -9.745766 -0.317096 -22.578189 2.961199 14.491456 -15.006680 7.676625 -5.502186 42.808056 -0.496486 0.192089 -26.864855 -12.595369 -0.007908 0.351753 0.171272
-6.319295 87.732441 39.191844 -70.315544 5.427539 7.997114 -1.904221 6.753109 -0.656505 -0.835236 3.003778 -0.263474 -0.835222 3.003594 -0.263454 -0.624963 2.252932 -0.193423 -4.429100 17.530971 7.818328 -10.758110 -2.607390 15.886349 4.614716 4.519964 8.540078 -9.008799 -2.445320 70.382018 91.949226 8.449039 26.149693 13.360983 12.914292 -9.434447 -1.503217 -1.927368 -6.961805 -6.415965 3.463987 -68.091915 -112.741764 7.573527 -12.178137 0.997293 7.179623 50.059140 4.702652 -40.832836 -2.900373 5.507052 80.749186 5.075058 -1.152749 -13.733822 -9.072960 -0.149064 -19.081471 2.259426 16.340938 -13.616028 7.261549 -4.530142 41.571399 0.316618 1.157670 -27.011408 -12.952777 -0.015459 0.704184 0.341111
-6.975371 88.121033 39.697765 -73.346737 6.281510 7.677863 -1.930113 6.539071 -0.488347 -0.849497 2.908261 -0.189439 -0.849497 2.908261 -0.189439 -0.636084 2.181464 -0.138004 -4.298187 17.553327 7.744007 -10.492240 -2.601049 15.704451 4.106301 4.285477 8.791249 -10.043678 -1.599453 70.448211 92.065017 6.952632 27.349721 13.486815 12.116499 -9.963688 -1.437548 -1.895557 -6.777078 -6.766162 2.386178 -68.866940 -115.504130 8.334008 -11.910301 0.495806 6.993630 50.243989 4.352742 -42.129356 -2.673537 4.337598 79.525825 5.004764 -1.831957 -14.219583 -8.440774 -0.015876 -15.091739 1.674795 17.896164 -12.082863 6.965230 -3.670011 39.836688 0.922824 2.192130 -26.477307 -13.468219 -0.000000 0.000000 -0.000000
-7.772653 88.675865 40.064994 -76.185795 7.178874 7.291808 -2.090480 6.265191 -0.254760 -0.924362 2.785846 -0.084793 -0.924456 2.785978 -0.084788 -0.692885 2.089711 -0.059355 -4.082072 17.589248 7.579259 -10.039488 -2.598440 15.326603 3.692950 4.106153 8.891085 -11.321442 -0.873391 70.437026 92.286126 5.759783 29.107751 13.584992 11.717755 -10.409553 -1.300326 -1.970135 -6.647437 -7.164470 1.716818 -69.574733 -118.174931 9.541431 -11.566581 -0.118536 7.033228 50.250201 4.612648 -43.313402 -2.935708 -0.867409 77.815096 1.535966 -1.551167 -14.471632 -7.866926 0.128025 -9.851641 1.148387 18.807829 -10.457987 6.872739 -2.907339 37.602292 1.174372 3.433965 -25.195701 -14.136172 0.059794 -2.376392 -1.420899
-8.712472 89.377798 40.309892 -78.944014 8.108063 6.866532 -2.322307 5.942467 0.019560 -1.031059 2.641101 0.038442 -1.031129 2.641188 0.038438 -0.773425 1.980894 0.033282 -3.795132 17.646393 7.332981 -9.426597 -2.575378 14.774919 3.328945 3.912868 8.910145 -12.755222 -0.206433 70.279163 92.576209 4.747953 31.295184 13.666644 11.486027 -10.708884 -1.111059 -2.071978 -6.534625 -7.487424 1.307469 -70.239128 -120.825943 11.009378 -11.403894 -0.795929 7.139343 50.117656 5.212764 -44.374847 -3.467637 -6.630653 75.547947 -2.172151 -0.893395 -14.574271 -7.293180 0.146943 -4.071328 0.599552 19.441428 -8.680960 6.865194 -2.205385 34.868137 1.306966 4.690619 -23.232061 -14.942461 0.203163 -5.817562 -3.343669
-9.794454 90.140157 40.447044 -81.705458 9.023686 6.412532 -2.559862 5.620186 0.298465 -1.139926 2.496191 0.163522 -1.139926 2.496191 0.163522 -0.855478 1.871846 0.127281 -3.472035 17.711587 7.058481 -8.737567 -2.543272 14.158245 3.122819 3.811859 8.921046 -14.007149 0.403316 70.087493 92.898912 4.266877 33.175591 13.720340 11.317062 -10.766244 -0.939223 -1.992013 -6.432727 -7.689494 0.897325 -70.703853 -123.087297 12.244377 -11.607735 -1.331124 7.145771 49.988964 6.001769 -45.172781 -3.901695 -10.076309 72.877463 -3.731618 -0.469477 -14.730792 -6.645358 0.000000 0.000000 0.000000 20.154367 -7.009346 6.968164 -1.610735 32.284520 1.358108 5.574518 -20.512446 -15.849660 0.380393 -9.542485 -4.555030
